<?xml version="1.0" encoding="UTF-8"?>
<!DOCTYPE svg PUBLIC "-//W3C//DTD SVG 1.1//EN" "http://www.w3.org/Graphics/SVG/1.1/DTD/svg11.dtd">
<svg xmlns="http://www.w3.org/2000/svg" version="1.1" viewBox="0 0 200 200" style="shape-rendering:geometricPrecision; text-rendering:geometricPrecision; image-rendering:optimizeQuality; fill-rule:evenodd; clip-rule:evenodd" xmlns:xlink="http://www.w3.org/1999/xlink">
<g><path style="opacity:1" fill="#192320" d="M 167.5,77.5 C 164.89,79.6319 162.723,81.6319 161,83.5C 159.989,83.1081 159.489,82.4415 159.5,81.5C 158.808,82.0253 158.308,82.6919 158,83.5C 157.259,82.3595 156.425,82.3595 155.5,83.5C 155.167,83.1667 154.833,82.8333 154.5,82.5C 155.193,81.4822 155.859,80.4822 156.5,79.5C 164.193,74.6136 169.026,67.6136 171,58.5C 171.667,52.5 171.667,46.5 171,40.5C 170.258,37.3435 168.758,34.6768 166.5,32.5C 154.806,40.916 146.806,51.916 142.5,65.5C 142.833,66.1667 143.167,66.8333 143.5,67.5C 147.93,63.5645 151.43,58.8979 154,53.5C 154.852,58.4767 154.352,63.31 152.5,68C 152.667,68.5 152.833,69 153,69.5C 153.893,68.2888 154.726,68.2888 155.5,69.5C 153.451,72.5497 150.784,74.883 147.5,76.5C 147.863,77.1835 148.196,77.8501 148.5,78.5C 146.533,78.7394 144.699,78.4061 143,77.5C 142.536,78.0944 142.369,78.7611 142.5,79.5C 140.526,77.572 139.026,75.2387 138,72.5C 136.488,73.2567 135.154,74.2567 134,75.5C 128.672,71.6672 123.505,67.6672 118.5,63.5C 118.5,63.1667 118.5,62.8333 118.5,62.5C 119.091,59.3864 120.758,56.8864 123.5,55C 120.833,54.3333 118.167,54.3333 115.5,55C 111.566,57.4639 107.566,59.6306 103.5,61.5C 96.8909,63.3887 91.0576,62.0554 86,57.5C 85.5172,56.552 85.3505,55.552 85.5,54.5C 81.1394,54.2912 77.1394,55.2912 73.5,57.5C 72.5416,57.0472 71.7083,56.3805 71,55.5C 70.6012,55.7284 70.4346,56.0618 70.5,56.5C 67.5108,49.833 66.8441,42.833 68.5,35.5C 63.5,34.9969 63.8333,34.6636 69.5,34.5C 69.9444,30.6677 71.2777,27.1677 73.5,24C 75.8283,20.335 79.1617,17.0017 83.5,14C 80.3035,13.1955 77.3035,13.3622 74.5,14.5C 70.2294,15.6357 66.5627,17.8023 63.5,21C 65.4727,21.4955 67.4727,21.6621 69.5,21.5C 69.5,22.1667 69.1667,22.5 68.5,22.5C 63.4024,21.4295 60.2357,23.4295 59,28.5C 57.7918,34.4765 56.9584,40.8098 56.5,47.5C 56.2627,48.791 56.596,49.791 57.5,50.5C 57.7556,53.5979 58.4222,56.5979 59.5,59.5C 58.8501,59.8039 58.1835,60.1373 57.5,60.5C 56.3044,60.1543 56.3044,59.6543 57.5,59C 56.552,58.5172 55.552,58.3505 54.5,58.5C 54.3296,51.3395 50.9963,46.3395 44.5,43.5C 45.9526,42.1751 45.6192,41.3418 43.5,41C 44.731,39.8173 44.731,38.6507 43.5,37.5C 40.0716,34.2812 36.0716,33.1145 31.5,34C 30.6006,35.6516 29.6006,37.1516 28.5,38.5C 28.299,34.2067 30.299,32.2067 34.5,32.5C 40.4494,33.6081 45.6161,36.2748 50,40.5C 50.7303,30.6434 54.8969,22.1434 62.5,15C 71.9346,7.78984 81.9346,6.78984 92.5,12C 96.9058,18.6464 94.9058,21.6464 86.5,21C 82.28,24.4866 80.28,28.9866 80.5,34.5C 80.7469,39.075 81.9135,43.4083 84,47.5C 87.1379,35.7166 92.9713,25.5499 101.5,17C 112.719,8.26832 125.052,6.26832 138.5,11C 144.116,13.6705 145.449,17.5039 142.5,22.5C 139.191,20.1988 135.857,20.3654 132.5,23C 125.137,29.8942 121.137,38.3942 120.5,48.5C 122.819,49.167 125.153,49.3336 127.5,49C 138.956,40.2155 150.956,32.2155 163.5,25C 166.303,24.245 168.97,24.5783 171.5,26C 174.49,29.6282 176.323,33.7949 177,38.5C 179.918,53.1599 176.751,66.1599 167.5,77.5 Z"/></g>
<g><path style="opacity:1" fill="#b7cda7" d="M 118.5,14.5 C 118.938,14.4346 119.272,14.6012 119.5,15C 117.286,18.1068 114.286,19.6068 110.5,19.5C 108.158,19.2252 108.158,18.3919 110.5,17C 112.909,15.2932 115.575,14.4598 118.5,14.5 Z"/></g>
<g><path style="opacity:0.999" fill="#bad1aa" d="M 74.5,14.5 C 75.2389,14.369 75.9056,14.5357 76.5,15C 74.2968,17.3722 71.9635,19.5389 69.5,21.5C 67.4727,21.6621 65.4727,21.4955 63.5,21C 66.5627,17.8023 70.2294,15.6357 74.5,14.5 Z"/></g>
<g><path style="opacity:1" fill="#bdd4ac" d="M 110.5,20.5 C 111.043,20.56 111.376,20.8933 111.5,21.5C 109.221,25.0608 107.221,28.7274 105.5,32.5C 102.753,32.8134 100.086,32.48 97.5,31.5C 99.9749,27.8579 102.642,24.3579 105.5,21C 107.134,20.5065 108.801,20.3398 110.5,20.5 Z"/></g>
<g><path style="opacity:1" fill="#7da077" d="M 74.5,14.5 C 77.3035,13.3622 80.3035,13.1955 83.5,14C 79.1617,17.0017 75.8283,20.335 73.5,24C 71.2777,27.1677 69.9444,30.6677 69.5,34.5C 63.8333,34.6636 63.5,34.9969 68.5,35.5C 66.8441,42.833 67.5108,49.833 70.5,56.5C 68.9478,59.1119 66.6145,60.4452 63.5,60.5C 62.7812,55.8821 62.2812,51.2154 62,46.5C 59.8816,47.2829 58.3816,48.6162 57.5,50.5C 56.596,49.791 56.2627,48.791 56.5,47.5C 60.6398,47.2709 62.6398,45.1042 62.5,41C 62.3708,39.0194 61.7042,37.3528 60.5,36C 61.624,35.7508 62.624,35.2508 63.5,34.5C 65.1741,30.471 66.8407,26.471 68.5,22.5C 69.1667,22.5 69.5,22.1667 69.5,21.5C 71.9635,19.5389 74.2968,17.3722 76.5,15C 75.9056,14.5357 75.2389,14.369 74.5,14.5 Z"/></g>
<g><path style="opacity:1" fill="#1c2522" d="M 44.5,43.5 C 42.093,42.2055 39.9263,40.5389 38,38.5C 40.1577,47.3111 44.3244,55.1444 50.5,62C 52.8411,62.1681 54.1744,61.0014 54.5,58.5C 55.552,58.3505 56.552,58.5172 57.5,59C 56.3044,59.6543 56.3044,60.1543 57.5,60.5C 58.1835,60.1373 58.8501,59.8039 59.5,59.5C 60.5676,60.4345 61.901,60.7678 63.5,60.5C 66.6145,60.4452 68.9478,59.1119 70.5,56.5C 70.4346,56.0618 70.6012,55.7284 71,55.5C 71.7083,56.3805 72.5416,57.0472 73.5,57.5C 71.3348,61.0089 68.3348,63.3422 64.5,64.5C 57.2201,62.6421 52.2201,65.3088 49.5,72.5C 48.6586,74.3792 48.3253,76.3792 48.5,78.5C 55.1991,78.0354 58.5324,81.2021 58.5,88C 58.2739,91.0117 57.4406,93.845 56,96.5C 53.2095,99.9914 50.0428,103.158 46.5,106C 47.7932,106.49 49.1266,106.657 50.5,106.5C 55.3434,106.222 60.01,106.889 64.5,108.5C 65.8368,111.317 65.1701,113.817 62.5,116C 59.2738,118.575 55.6071,120.075 51.5,120.5C 51.6183,128.785 55.785,133.452 64,134.5C 73.2946,133.606 80.4613,129.273 85.5,121.5C 86.568,123.187 86.4014,124.854 85,126.5C 76.81,136.255 66.6433,139.255 54.5,135.5C 52.9334,135.477 51.6001,135.977 50.5,137C 56.1286,146.636 64.4619,149.969 75.5,147C 78.2017,146.16 80.8683,145.327 83.5,144.5C 85.3786,144.393 85.7119,144.893 84.5,146C 79.9446,148.445 75.278,150.612 70.5,152.5C 67.8823,157.562 67.049,162.895 68,168.5C 68.7172,167.956 69.2172,167.289 69.5,166.5C 70.5832,166.461 71.5832,166.127 72.5,165.5C 74.3439,174.837 79.1772,182.17 87,187.5C 89.5785,183.202 91.2452,178.535 92,173.5C 92.7988,177.759 94.6321,181.425 97.5,184.5C 100.084,181.651 102.417,178.651 104.5,175.5C 104.736,177.382 104.736,179.216 104.5,181C 101.132,182.718 99.4657,185.551 99.5,189.5C 97.3202,191.744 95.1535,191.411 93,188.5C 91.9152,191.25 89.9152,192.917 87,193.5C 77.3749,190.048 71.5415,183.381 69.5,173.5C 66.6735,174.974 64.1735,174.64 62,172.5C 61.2618,170.047 60.7618,167.547 60.5,165C 61.2338,160.833 61.9004,156.667 62.5,152.5C 53.1286,150.967 46.9619,145.634 44,136.5C 34.6267,129.714 31.6267,120.714 35,109.5C 37.3849,105.613 40.5516,102.613 44.5,100.5C 41.9673,94.3193 41.3006,87.986 42.5,81.5C 28.3184,70.1632 23.6517,55.8298 28.5,38.5C 29.6006,37.1516 30.6006,35.6516 31.5,34C 36.0716,33.1145 40.0716,34.2812 43.5,37.5C 44.731,38.6507 44.731,39.8173 43.5,41C 45.6192,41.3418 45.9526,42.1751 44.5,43.5 Z"/></g>
<g><path style="opacity:1" fill="#bbd0aa" d="M 103.5,33.5 C 102.167,37.1667 100.833,40.8333 99.5,44.5C 97.1667,44.5 94.8333,44.5 92.5,44.5C 92.7986,40.8945 93.9653,37.5612 96,34.5C 98.3806,33.565 100.881,33.2317 103.5,33.5 Z"/></g>
<g><path style="opacity:1" fill="#f6f2db" d="M 156.5,79.5 C 153.721,79.7214 151.054,79.388 148.5,78.5C 148.196,77.8501 147.863,77.1835 147.5,76.5C 150.784,74.883 153.451,72.5497 155.5,69.5C 154.726,68.2888 153.893,68.2888 153,69.5C 152.833,69 152.667,68.5 152.5,68C 154.352,63.31 154.852,58.4767 154,53.5C 151.43,58.8979 147.93,63.5645 143.5,67.5C 143.167,66.8333 142.833,66.1667 142.5,65.5C 146.806,51.916 154.806,40.916 166.5,32.5C 168.758,34.6768 170.258,37.3435 171,40.5C 171.667,46.5 171.667,52.5 171,58.5C 169.026,67.6136 164.193,74.6136 156.5,79.5 Z"/></g>
<g><path style="opacity:1" fill="#7da177" d="M 118.5,14.5 C 121.64,13.3592 124.973,13.1925 128.5,14C 123.872,16.7011 120.205,19.7011 117.5,23C 115.375,26.0823 113.375,29.2489 111.5,32.5C 109.922,33.2978 108.256,33.7978 106.5,34C 107.938,34.2189 109.271,34.7189 110.5,35.5C 109.5,38.1667 108.5,40.8333 107.5,43.5C 104.914,44.48 102.247,44.8134 99.5,44.5C 100.833,40.8333 102.167,37.1667 103.5,33.5C 104.492,33.6716 105.158,33.3382 105.5,32.5C 107.221,28.7274 109.221,25.0608 111.5,21.5C 111.376,20.8933 111.043,20.56 110.5,20.5C 110.5,20.1667 110.5,19.8333 110.5,19.5C 114.286,19.6068 117.286,18.1068 119.5,15C 119.272,14.6012 118.938,14.4346 118.5,14.5 Z"/></g>
<g><path style="opacity:1" fill="#bcd2ab" d="M 68.5,22.5 C 66.8407,26.471 65.1741,30.471 63.5,34.5C 62.624,35.2508 61.624,35.7508 60.5,36C 61.7042,37.3528 62.3708,39.0194 62.5,41C 62.6398,45.1042 60.6398,47.2709 56.5,47.5C 56.9584,40.8098 57.7918,34.4765 59,28.5C 60.2357,23.4295 63.4024,21.4295 68.5,22.5 Z"/></g>
<g><path style="opacity:1" fill="#7fa479" d="M 98.5,45.5 C 101.167,45.5 103.833,45.5 106.5,45.5C 106.76,49.3479 106.094,53.0145 104.5,56.5C 101.579,57.4066 98.5788,57.7399 95.5,57.5C 96.0901,53.3967 97.0901,49.3967 98.5,45.5 Z"/></g>
<g><path style="opacity:1" fill="#bdd4ac" d="M 98.5,45.5 C 97.0901,49.3967 96.0901,53.3967 95.5,57.5C 94.0695,57.5792 92.7362,57.2458 91.5,56.5C 90.3452,53.5541 90.1786,50.5541 91,47.5C 93.1062,45.709 95.6062,45.0423 98.5,45.5 Z"/></g>
<g><path style="opacity:1" fill="#b9d0a9" d="M 148.5,44.5 C 145.732,46.0872 143.065,47.9205 140.5,50C 136.621,54.374 132.954,58.874 129.5,63.5C 127.999,62.2485 126.332,61.2485 124.5,60.5C 133.309,51.1618 143.309,43.6618 154.5,38C 152.266,40.0627 150.266,42.2294 148.5,44.5 Z"/></g>
<g><path style="opacity:1" fill="#e4e1d2" d="M 32.5,41.5 C 33.3764,41.3691 34.0431,41.7025 34.5,42.5C 39.0541,51.112 43.7208,59.612 48.5,68C 47.259,70.5628 45.9256,73.0628 44.5,75.5C 34.0898,66.5714 30.0898,55.2381 32.5,41.5 Z"/></g>
<g><path style="opacity:0.999" fill="#b9d0a8" d="M 63.5,60.5 C 61.901,60.7678 60.5676,60.4345 59.5,59.5C 58.4222,56.5979 57.7556,53.5979 57.5,50.5C 58.3816,48.6162 59.8816,47.2829 62,46.5C 62.2812,51.2154 62.7812,55.8821 63.5,60.5 Z"/></g>
<g><path style="opacity:1" fill="#85a97e" d="M 148.5,44.5 C 142.549,52.0848 138.549,60.4181 136.5,69.5C 134.353,67.2632 132.02,65.2632 129.5,63.5C 132.954,58.874 136.621,54.374 140.5,50C 143.065,47.9205 145.732,46.0872 148.5,44.5 Z"/></g>
<g><path style="opacity:0.999" fill="#90b087" d="M 44.5,43.5 C 50.9963,46.3395 54.3296,51.3395 54.5,58.5C 54.1744,61.0014 52.8411,62.1681 50.5,62C 44.3244,55.1444 40.1577,47.3111 38,38.5C 39.9263,40.5389 42.093,42.2055 44.5,43.5 Z"/></g>
<g><path style="opacity:0.999" fill="#94b68b" d="M 118.5,62.5 C 116.544,60.8516 114.211,60.1849 111.5,60.5C 109.901,60.2322 108.568,60.5655 107.5,61.5C 106.167,61.5 104.833,61.5 103.5,61.5C 107.566,59.6306 111.566,57.4639 115.5,55C 118.167,54.3333 120.833,54.3333 123.5,55C 120.758,56.8864 119.091,59.3864 118.5,62.5 Z"/></g>
<g><path style="opacity:1" fill="#82f1be" d="M 111.5,60.5 C 114.211,60.1849 116.544,60.8516 118.5,62.5C 118.5,62.8333 118.5,63.1667 118.5,63.5C 116.393,64.4682 114.059,64.8016 111.5,64.5C 111.5,63.1667 111.5,61.8333 111.5,60.5 Z"/></g>
<g><path style="opacity:1" fill="#1b2420" d="M 88.5,73.5 C 82.1667,73.5 75.8333,73.5 69.5,73.5C 69.5,72.5 69.5,71.5 69.5,70.5C 69.5,69.5 69.5,68.5 69.5,67.5C 70.4345,66.4324 70.7678,65.099 70.5,63.5C 77.1667,63.5 83.8333,63.5 90.5,63.5C 90.8412,67.1595 90.1745,70.4928 88.5,73.5 Z"/></g>
<g><path style="opacity:1" fill="#82f8c6" d="M 103.5,61.5 C 104.833,61.5 106.167,61.5 107.5,61.5C 107.5,62.8333 107.5,64.1667 107.5,65.5C 102.229,65.8208 97.2292,67.1541 92.5,69.5C 91.2528,67.9936 91.2528,66.4936 92.5,65C 96.614,64.885 100.281,63.7183 103.5,61.5 Z"/></g>
<g><path style="opacity:1" fill="#e7efcd" d="M 111.5,60.5 C 111.5,61.8333 111.5,63.1667 111.5,64.5C 110.292,65.2341 108.959,65.5674 107.5,65.5C 107.5,64.1667 107.5,62.8333 107.5,61.5C 108.568,60.5655 109.901,60.2322 111.5,60.5 Z"/></g>
<g><path style="opacity:1" fill="#7ee0b2" d="M 124.5,60.5 C 126.332,61.2485 127.999,62.2485 129.5,63.5C 132.02,65.2632 134.353,67.2632 136.5,69.5C 135.746,71.4459 134.412,72.2793 132.5,72C 129.333,69.5 126.167,67 123,64.5C 122.227,62.6476 122.727,61.3143 124.5,60.5 Z"/></g>
<g><path style="opacity:1" fill="#87f7c9" d="M 63.5,65.5 C 64.1667,65.5 64.8333,65.5 65.5,65.5C 67.4832,65.1568 68.8166,65.8235 69.5,67.5C 69.5,68.5 69.5,69.5 69.5,70.5C 67.4352,70.4828 65.4352,70.1495 63.5,69.5C 63.5,68.1667 63.5,66.8333 63.5,65.5 Z"/></g>
<g><path style="opacity:0.999" fill="#f1f5d4" d="M 63.5,65.5 C 63.5,66.8333 63.5,68.1667 63.5,69.5C 61.1985,70.8598 59.5318,70.1932 58.5,67.5C 59.6685,65.7826 61.3352,65.1159 63.5,65.5 Z"/></g>
<g><path style="opacity:1" fill="#9ebd93" d="M 64.5,64.5 C 65.1667,64.5 65.5,64.8333 65.5,65.5C 64.8333,65.5 64.1667,65.5 63.5,65.5C 61.3352,65.1159 59.6685,65.7826 58.5,67.5C 59.5318,70.1932 61.1985,70.8598 63.5,69.5C 65.4352,70.1495 67.4352,70.4828 69.5,70.5C 69.5,71.5 69.5,72.5 69.5,73.5C 75.8333,73.5 82.1667,73.5 88.5,73.5C 87.7375,74.2679 86.7375,74.7679 85.5,75C 86.6667,75.5 87.5,76.3333 88,77.5C 89.6356,75.4503 91.8023,74.4503 94.5,74.5C 89.183,81.1228 84.3497,88.1228 80,95.5C 75.5201,100.827 70.3535,105.16 64.5,108.5C 60.01,106.889 55.3434,106.222 50.5,106.5C 53.8309,103 56.9976,99.3338 60,95.5C 64.6287,85.3854 62.7954,76.7188 54.5,69.5C 53.0603,70.9524 51.3936,71.9524 49.5,72.5C 52.2201,65.3088 57.2201,62.6421 64.5,64.5 Z"/></g>
<g><path style="opacity:1" fill="#f7e792" d="M 72.5,65.5 C 77.8333,65.5 83.1667,65.5 88.5,65.5C 88.6427,67.2624 88.3094,68.9291 87.5,70.5C 82.544,71.4941 77.544,71.8275 72.5,71.5C 72.5,69.5 72.5,67.5 72.5,65.5 Z"/></g>
<g><path style="opacity:1" fill="#fbf7df" d="M 119.5,115.5 C 122.22,118.678 123.054,122.345 122,126.5C 119.594,130.408 116.428,133.408 112.5,135.5C 110.5,136.167 108.5,136.833 106.5,137.5C 98.585,139.251 90.9183,141.585 83.5,144.5C 80.8683,145.327 78.2017,146.16 75.5,147C 64.4619,149.969 56.1286,146.636 50.5,137C 51.6001,135.977 52.9334,135.477 54.5,135.5C 66.6433,139.255 76.81,136.255 85,126.5C 86.4014,124.854 86.568,123.187 85.5,121.5C 80.4613,129.273 73.2946,133.606 64,134.5C 55.785,133.452 51.6183,128.785 51.5,120.5C 55.6071,120.075 59.2738,118.575 62.5,116C 65.1701,113.817 65.8368,111.317 64.5,108.5C 70.3535,105.16 75.5201,100.827 80,95.5C 84.3497,88.1228 89.183,81.1228 94.5,74.5C 97.4721,72.6778 100.472,70.8445 103.5,69C 116.453,65.3932 125.286,69.8932 130,82.5C 132.682,96.4743 127.515,106.141 114.5,111.5C 116.186,112.857 117.852,114.19 119.5,115.5 Z"/></g>
<g><path style="opacity:1" fill="#f4f2dd" d="M 50.5,106.5 C 49.1266,106.657 47.7932,106.49 46.5,106C 50.0428,103.158 53.2095,99.9914 56,96.5C 57.4406,93.845 58.2739,91.0117 58.5,88C 58.5324,81.2021 55.1991,78.0354 48.5,78.5C 48.3253,76.3792 48.6586,74.3792 49.5,72.5C 51.3936,71.9524 53.0603,70.9524 54.5,69.5C 62.7954,76.7188 64.6287,85.3854 60,95.5C 56.9976,99.3338 53.8309,103 50.5,106.5 Z"/></g>
<g><path style="opacity:1" fill="#8daf86" d="M 103.5,61.5 C 100.281,63.7183 96.614,64.885 92.5,65C 91.2528,66.4936 91.2528,67.9936 92.5,69.5C 97.2292,67.1541 102.229,65.8208 107.5,65.5C 108.959,65.5674 110.292,65.2341 111.5,64.5C 114.059,64.8016 116.393,64.4682 118.5,63.5C 123.505,67.6672 128.672,71.6672 134,75.5C 135.154,74.2567 136.488,73.2567 138,72.5C 139.026,75.2387 140.526,77.572 142.5,79.5C 143.823,81.4714 145.156,83.4714 146.5,85.5C 141.846,86.3467 137.179,87.0134 132.5,87.5C 132.5,90.8333 132.5,94.1667 132.5,97.5C 136.5,97.5 140.5,97.5 144.5,97.5C 142.99,99.3167 141.657,101.317 140.5,103.5C 139.167,101.5 137.5,99.8333 135.5,98.5C 132.115,104.219 127.448,108.552 121.5,111.5C 120.638,112.766 119.971,114.099 119.5,115.5C 117.852,114.19 116.186,112.857 114.5,111.5C 127.515,106.141 132.682,96.4743 130,82.5C 125.286,69.8932 116.453,65.3932 103.5,69C 100.472,70.8445 97.4721,72.6778 94.5,74.5C 91.8023,74.4503 89.6356,75.4503 88,77.5C 87.5,76.3333 86.6667,75.5 85.5,75C 86.7375,74.7679 87.7375,74.2679 88.5,73.5C 90.1745,70.4928 90.8412,67.1595 90.5,63.5C 83.8333,63.5 77.1667,63.5 70.5,63.5C 70.7678,65.099 70.4345,66.4324 69.5,67.5C 68.8166,65.8235 67.4832,65.1568 65.5,65.5C 65.5,64.8333 65.1667,64.5 64.5,64.5C 68.3348,63.3422 71.3348,61.0089 73.5,57.5C 77.1394,55.2912 81.1394,54.2912 85.5,54.5C 85.3505,55.552 85.5172,56.552 86,57.5C 91.0576,62.0554 96.8909,63.3887 103.5,61.5 Z"/></g>
<g><path style="opacity:1" fill="#1d2723" d="M 109.5,76.5 C 118.231,76.73 122.897,81.23 123.5,90C 123.018,96.671 119.685,101.004 113.5,103C 108.096,103.772 102.762,103.439 97.5,102C 95.9437,94.0598 97.7771,86.8931 103,80.5C 105.013,78.7518 107.18,77.4185 109.5,76.5 Z"/></g>
<g><path style="opacity:1" fill="#18221e" d="M 148.5,78.5 C 151.054,79.388 153.721,79.7214 156.5,79.5C 155.859,80.4822 155.193,81.4822 154.5,82.5C 154.833,82.8333 155.167,83.1667 155.5,83.5C 156.425,82.3595 157.259,82.3595 158,83.5C 158.308,82.6919 158.808,82.0253 159.5,81.5C 159.489,82.4415 159.989,83.1081 161,83.5C 162.723,81.6319 164.89,79.6319 167.5,77.5C 166.347,79.432 166.347,81.432 167.5,83.5C 167.278,85.0554 166.611,86.3887 165.5,87.5C 170.159,94.6505 174.159,102.15 177.5,110C 177.241,111.261 176.574,112.261 175.5,113C 173.744,113.202 172.078,113.702 170.5,114.5C 172.453,119.311 173.619,124.311 174,129.5C 174.93,143.889 174.597,158.222 173,172.5C 170.305,178.27 165.805,181.77 159.5,183C 156.242,183.212 153.076,183.712 150,184.5C 143.343,183.492 136.177,183.159 128.5,183.5C 127.761,183.631 127.094,183.464 126.5,183C 127.719,180.722 129.052,178.555 130.5,176.5C 138.19,174.828 145.857,172.994 153.5,171C 156.671,165.167 161.671,162.667 168.5,163.5C 168.803,154.749 168.47,146.082 167.5,137.5C 167.5,136.5 167.5,135.5 167.5,134.5C 158.77,138.694 150.103,143.194 141.5,148C 140.5,151.667 139.5,155.333 138.5,159C 135.704,158.903 133.037,158.07 130.5,156.5C 126.387,163.049 121.553,169.049 116,174.5C 115.819,177.695 115.319,180.695 114.5,183.5C 111.069,183.972 107.735,183.972 104.5,183.5C 102.815,185.571 101.148,187.571 99.5,189.5C 99.4657,185.551 101.132,182.718 104.5,181C 104.736,179.216 104.736,177.382 104.5,175.5C 106.655,171.861 108.822,168.194 111,164.5C 111.739,166.221 112.573,167.887 113.5,169.5C 119.391,164.725 123.558,158.725 126,151.5C 128.718,152.347 131.384,153.347 134,154.5C 135.405,147.625 134.239,141.292 130.5,135.5C 128.5,136.167 126.5,136.833 124.5,137.5C 122.927,141.567 120.427,144.9 117,147.5C 116.536,146.906 116.369,146.239 116.5,145.5C 117.468,143.393 117.802,141.059 117.5,138.5C 113.629,138.815 109.962,138.482 106.5,137.5C 108.5,136.833 110.5,136.167 112.5,135.5C 121.417,135.29 128.917,131.957 135,125.5C 135.781,124.271 136.281,122.938 136.5,121.5C 135.374,118.629 134.207,115.962 133,113.5C 137.706,116.367 142.54,119.034 147.5,121.5C 147.566,117.406 146.233,113.572 143.5,110C 146.761,110.643 150.094,110.976 153.5,111C 151.628,107.423 149.628,103.923 147.5,100.5C 148.329,99.6676 149.162,100.001 150,101.5C 152.71,105.753 155.543,109.92 158.5,114C 156.527,114.495 154.527,114.662 152.5,114.5C 152.959,117.877 153.626,121.211 154.5,124.5C 152.488,123.986 150.488,123.82 148.5,124C 147.614,125.615 146.614,127.115 145.5,128.5C 142.31,130.594 139.31,132.928 136.5,135.5C 137.836,138.51 139.169,141.51 140.5,144.5C 143.897,142.474 147.23,140.474 150.5,138.5C 155.272,136.28 159.938,133.78 164.5,131C 165.574,130.261 166.241,129.261 166.5,128C 164.053,119.03 161.553,110.197 159,101.5C 168.797,110.091 169.964,108.925 162.5,98C 156.843,97.5006 151.176,97.3339 145.5,97.5C 145.167,97.5 144.833,97.5 144.5,97.5C 140.5,97.5 136.5,97.5 132.5,97.5C 132.5,94.1667 132.5,90.8333 132.5,87.5C 137.179,87.0134 141.846,86.3467 146.5,85.5C 145.156,83.4714 143.823,81.4714 142.5,79.5C 142.369,78.7611 142.536,78.0944 143,77.5C 144.699,78.4061 146.533,78.7394 148.5,78.5 Z"/></g>
<g><path style="opacity:0.999" fill="#edebe0" d="M 48.5,81.5 C 53.0685,81.0826 54.5685,83.0826 53,87.5C 49.828,90.3883 47.6614,89.7216 46.5,85.5C 46.7517,83.9271 47.4183,82.5938 48.5,81.5 Z"/></g>
<g><path style="opacity:0.999" fill="#efeee1" d="M 104.5,83.5 C 109.675,82.5071 111.509,84.5071 110,89.5C 106.692,92.2754 104.192,91.6088 102.5,87.5C 103.18,86.1401 103.847,84.8068 104.5,83.5 Z"/></g>
<g><path style="opacity:0.997" fill="#7ae3b2" d="M 150.5,87.5 C 152.71,88.4551 153.043,89.9551 151.5,92C 145.851,92.7575 140.184,93.2575 134.5,93.5C 134.5,91.8333 134.5,90.1667 134.5,88.5C 139.822,88.0199 145.155,87.6865 150.5,87.5 Z"/></g>
<g><path style="opacity:1" fill="#6c996d" d="M 150.5,87.5 C 152.288,86.3775 154.288,86.2109 156.5,87C 157.973,89.4476 159.307,91.9476 160.5,94.5C 152.016,95.493 143.349,95.8264 134.5,95.5C 134.5,94.8333 134.5,94.1667 134.5,93.5C 140.184,93.2575 145.851,92.7575 151.5,92C 153.043,89.9551 152.71,88.4551 150.5,87.5 Z"/></g>
<g><path style="opacity:1" fill="#334934" d="M 160.5,94.5 C 161.043,94.56 161.376,94.8933 161.5,95.5C 152.342,96.8218 143.342,96.8218 134.5,95.5C 143.349,95.8264 152.016,95.493 160.5,94.5 Z"/></g>
<g><path style="opacity:1" fill="#7da076" d="M 144.5,97.5 C 144.833,97.5 145.167,97.5 145.5,97.5C 145.932,98.7095 146.599,99.7095 147.5,100.5C 149.628,103.923 151.628,107.423 153.5,111C 150.094,110.976 146.761,110.643 143.5,110C 146.233,113.572 147.566,117.406 147.5,121.5C 142.54,119.034 137.706,116.367 133,113.5C 134.207,115.962 135.374,118.629 136.5,121.5C 136.281,122.938 135.781,124.271 135,125.5C 128.917,131.957 121.417,135.29 112.5,135.5C 116.428,133.408 119.594,130.408 122,126.5C 123.054,122.345 122.22,118.678 119.5,115.5C 119.971,114.099 120.638,112.766 121.5,111.5C 127.448,108.552 132.115,104.219 135.5,98.5C 137.5,99.8333 139.167,101.5 140.5,103.5C 141.657,101.317 142.99,99.3167 144.5,97.5 Z"/></g>
<g><path style="opacity:0.999" fill="#a9c19a" d="M 43.5,108.5 C 49.1764,108.334 54.8431,108.501 60.5,109C 60.9574,109.414 61.2907,109.914 61.5,110.5C 55.3217,112.479 48.9884,112.979 42.5,112C 41.6919,111.692 41.0253,111.192 40.5,110.5C 41.6016,109.824 42.6016,109.158 43.5,108.5 Z"/></g>
<g><path style="opacity:1" fill="#4c744e" d="M 145.5,97.5 C 151.176,97.3339 156.843,97.5006 162.5,98C 169.964,108.925 168.797,110.091 159,101.5C 161.553,110.197 164.053,119.03 166.5,128C 166.241,129.261 165.574,130.261 164.5,131C 159.938,133.78 155.272,136.28 150.5,138.5C 149.958,134.502 148.291,131.168 145.5,128.5C 146.614,127.115 147.614,125.615 148.5,124C 150.488,123.82 152.488,123.986 154.5,124.5C 153.626,121.211 152.959,117.877 152.5,114.5C 154.527,114.662 156.527,114.495 158.5,114C 155.543,109.92 152.71,105.753 150,101.5C 149.162,100.001 148.329,99.6676 147.5,100.5C 146.599,99.7095 145.932,98.7095 145.5,97.5 Z"/></g>
<g><path style="opacity:1" fill="#e6e3d3" d="M 38.5,114.5 C 41.4982,116.645 44.6648,118.645 48,120.5C 48.7056,124.325 49.8723,127.992 51.5,131.5C 44.8726,132.402 40.706,129.402 39,122.5C 38.5026,119.854 38.3359,117.187 38.5,114.5 Z"/></g>
<g><path style="opacity:1" fill="#789c71" d="M 145.5,128.5 C 148.291,131.168 149.958,134.502 150.5,138.5C 147.23,140.474 143.897,142.474 140.5,144.5C 139.169,141.51 137.836,138.51 136.5,135.5C 139.31,132.928 142.31,130.594 145.5,128.5 Z"/></g>
<g><path style="opacity:1" fill="#f9f5dd" d="M 104.5,175.5 C 102.417,178.651 100.084,181.651 97.5,184.5C 94.6321,181.425 92.7988,177.759 92,173.5C 91.2452,178.535 89.5785,183.202 87,187.5C 79.1772,182.17 74.3439,174.837 72.5,165.5C 71.5832,166.127 70.5832,166.461 69.5,166.5C 68.8614,165.903 68.528,165.07 68.5,164C 69.8599,161.73 70.5266,159.23 70.5,156.5C 71.8221,156.67 72.9887,156.337 74,155.5C 75.4602,160.782 78.2935,165.115 82.5,168.5C 83.3184,165.893 83.8184,163.226 84,160.5C 85.353,161.685 86.5197,163.019 87.5,164.5C 95.0137,154.656 104.347,146.989 115.5,141.5C 116.429,142.689 116.762,144.022 116.5,145.5C 116.369,146.239 116.536,146.906 117,147.5C 120.427,144.9 122.927,141.567 124.5,137.5C 126.5,136.833 128.5,136.167 130.5,135.5C 134.239,141.292 135.405,147.625 134,154.5C 131.384,153.347 128.718,152.347 126,151.5C 123.558,158.725 119.391,164.725 113.5,169.5C 112.573,167.887 111.739,166.221 111,164.5C 108.822,168.194 106.655,171.861 104.5,175.5 Z"/></g>
<g><path style="opacity:1" fill="#4c734d" d="M 167.5,137.5 C 168.47,146.082 168.803,154.749 168.5,163.5C 161.671,162.667 156.671,165.167 153.5,171C 145.857,172.994 138.19,174.828 130.5,176.5C 139.761,160.573 152.094,147.573 167.5,137.5 Z"/></g>
<g><path style="opacity:1" fill="#ccc8bb" d="M 106.5,137.5 C 109.962,138.482 113.629,138.815 117.5,138.5C 117.802,141.059 117.468,143.393 116.5,145.5C 116.762,144.022 116.429,142.689 115.5,141.5C 104.347,146.989 95.0137,154.656 87.5,164.5C 86.5197,163.019 85.353,161.685 84,160.5C 83.8184,163.226 83.3184,165.893 82.5,168.5C 78.2935,165.115 75.4602,160.782 74,155.5C 72.9887,156.337 71.8221,156.67 70.5,156.5C 70.5266,159.23 69.8599,161.73 68.5,164C 68.528,165.07 68.8614,165.903 69.5,166.5C 69.2172,167.289 68.7172,167.956 68,168.5C 67.049,162.895 67.8823,157.562 70.5,152.5C 75.278,150.612 79.9446,148.445 84.5,146C 85.7119,144.893 85.3786,144.393 83.5,144.5C 90.9183,141.585 98.585,139.251 106.5,137.5 Z"/></g>
<g><path style="opacity:1" fill="#779b70" d="M 167.5,137.5 C 152.094,147.573 139.761,160.573 130.5,176.5C 129.052,178.555 127.719,180.722 126.5,183C 127.094,183.464 127.761,183.631 128.5,183.5C 123.899,184.726 119.232,184.726 114.5,183.5C 115.319,180.695 115.819,177.695 116,174.5C 121.553,169.049 126.387,163.049 130.5,156.5C 133.037,158.07 135.704,158.903 138.5,159C 139.5,155.333 140.5,151.667 141.5,148C 150.103,143.194 158.77,138.694 167.5,134.5C 167.5,135.5 167.5,136.5 167.5,137.5 Z"/></g>
<g><path style="opacity:1" fill="#496f4a" d="M 159.5,166.5 C 161.833,166.5 164.167,166.5 166.5,166.5C 166.67,167.822 166.337,168.989 165.5,170C 162.883,170.822 160.216,171.322 157.5,171.5C 157.392,169.486 158.058,167.82 159.5,166.5 Z"/></g>
</svg>
